# xmcd
#
# Track frame offsets: 
#        182
#        37342
#        63932
#        97315
#        114355
#        135872
#        167012
#
# Disc length: 2637 seconds
#
# Revision: 2
# Processed by: cddbd v1.5.2PL0 Copyright (c) Steve Scherf et al.
# Submitted via: ExactAudioCopy v0.99pb4
#
DISCID=5b0a4b07
DTITLE=Lee Oskar - Before the Rain
DYEAR=1978
DGENRE=Jazz
TTITLE0=Before The Rain
TTITLE1=Steppin'
TTITLE2=San Francisco Bay
TTITLE3=Feelin' Happy
TTITLE4=More Than Words Can Say
TTITLE5=Sing Song
TTITLE6=Haunted House
EXTD=Harmonica Player with Eric Burdon and WAR
EXTT0=
EXTT1=
EXTT2=
EXTT3=
EXTT4=
EXTT5=
EXTT6=
PLAYORDER=
